<?xml version="1.0" standalone="no"?>
<!DOCTYPE svg PUBLIC "-//W3C//DTD SVG 20010904//EN"
 "http://www.w3.org/TR/2001/REC-SVG-20010904/DTD/svg10.dtd">
<svg version="1.0" xmlns="http://www.w3.org/2000/svg"
 width="16.000000pt" height="16.000000pt" viewBox="0 0 16.000000 16.000000"
 preserveAspectRatio="xMidYMid meet">
<metadata>
Created by potrace 1.11, written by Peter Selinger 2001-2013
</metadata>
<g transform="translate(0.000000,16.000000) scale(0.000800,-0.000800)"
fill="#000000" stroke="none">
<path d="M3392 12785 c-59 -19 -99 -46 -147 -97 -52 -55 -69 -85 -150 -265
-37 -81 -76 -168 -87 -193 -12 -25 -29 -63 -39 -85 -10 -22 -31 -70 -48 -107
-16 -38 -36 -68 -43 -69 -7 0 -22 -2 -33 -4 -11 -3 -330 -5 -710 -5 -722 -1
-747 -2 -840 -45 -57 -26 -124 -73 -165 -115 -20 -21 -94 -146 -174 -295 -77
-143 -151 -282 -166 -310 -15 -27 -47 -86 -70 -130 -23 -44 -53 -98 -65 -120
-13 -22 -44 -80 -70 -130 -25 -49 -51 -94 -56 -99 -5 -6 -9 -17 -9 -25 0 -8
-6 -22 -14 -30 -7 -9 -48 -83 -91 -166 -43 -82 -94 -181 -115 -220 -196 -368
-275 -530 -290 -593 -17 -75 -7 -168 26 -233 39 -79 107 -145 449 -436 171
-146 323 -279 339 -296 48 -53 63 -102 70 -221 4 -60 8 -112 10 -115 3 -4 7
-42 11 -86 3 -44 7 -91 10 -105 2 -14 7 -45 10 -70 20 -127 122 -232 249 -255
19 -4 133 -8 253 -9 261 -2 264 -3 307 -98 116 -257 148 -304 249 -371 93 -62
130 -70 342 -72 l190 -2 75 -37 c41 -20 104 -46 140 -57 64 -19 121 -19 5640
-17 l5575 3 47 23 c82 41 139 101 200 213 87 159 530 1050 665 1339 44 92 66
118 112 127 20 3 862 7 1871 8 1378 1 1852 4 1903 14 203 35 286 103 370 301
19 47 68 168 107 270 39 102 79 205 90 230 10 25 26 65 35 90 10 25 21 54 26
65 4 11 28 75 53 141 25 67 50 132 55 145 5 13 31 80 56 149 26 69 64 170 85
225 21 55 66 172 99 260 33 88 65 174 72 190 7 17 13 35 14 40 2 6 37 100 80
209 96 251 108 298 101 388 -13 166 -116 276 -306 327 -41 11 -95 22 -120 25
-25 3 -2788 5 -6141 5 l-6096 1 48 188 c56 222 62 251 62 318 1 103 -76 202
-203 263 l-75 36 -1865 2 c-1549 1 -1872 -1 -1908 -12z"/>
</g>
</svg>
